# xmcd
#
# Track frame offsets:
# 150
# 23956
# 91504
# 144490
# 178228
# 214948
# 252259
# 285781
#
# Disc length: 4442 seconds
#
#
# Revision: 1
# Processed by: cddbd v1.5.1PL2 Copyright (c) Steve Scherf et al.
# Submitted via: FreeRIP 2.11 
#
DISCID=68115808
DTITLE=Albert Ayler - Nuits De La Fondation Maeght 1970
DYEAR=1970
DGENRE=Jazz
TTITLE0=In Heart Only
TTITLE1=Spirits
TTITLE2=Holy Family
TTITLE3=Spirits Rejoice
TTITLE4=Truth Is Marching In
TTITLE5=Universal Message
TTITLE6=Spiritual Reunion
TTITLE7=Music Is The Healing Force Of The Universe
EXTD=YEAR: 1970
EXTT0=
EXTT1=
EXTT2=
EXTT3=
EXTT4=
EXTT5=
EXTT6=
EXTT7=
PLAYORDER=
